<svg height="24" viewBox="0 0 24 24" width="24" xmlns="http://www.w3.org/2000/svg" fill="currentColor" stroke="none"><path fill="currentColor" stroke="none" d="m20 24h-16c-2.2 0-4-1.8-4-4v-16c0-2.2 1.8-4 4-4h16c2.2 0 4 1.8 4 4v16c0 2.2-1.8 4-4 4zm-16-22c-1.1 0-2 .9-2 2v16c0 1.1.9 2 2 2h16c1.1 0 2-.9 2-2v-16c0-1.1-.9-2-2-2z"/><path fill="currentColor" d="m8 24c-.6 0-1-.4-1-1v-22c0-.6.4-1 1-1s1 .4 1 1v22c0 .6-.4 1-1 1z"/><path fill="currentColor" d="m14 13c-.3 0-.5-.1-.7-.3-.4-.4-.4-1 0-1.4l3-3c.4-.4 1-.4 1.4 0s.4 1 0 1.4l-3 3c-.2.2-.4.3-.7.3z"/><path fill="currentColor" d="m17 16c-.3 0-.5-.1-.7-.3l-3-3c-.4-.4-.4-1 0-1.4s1-.4 1.4 0l3 3c.4.4.4 1 0 1.4-.2.2-.4.3-.7.3z"/></svg>